<svg width="2048" height="1916" viewBox="0 0 2048 1916" fill="none" xmlns="http://www.w3.org/2000/svg">
<path d="M226 569C194 537 169.667 500.667 153 460C136.333 419.333 128 376.667 128 332C128 284.667 136.667 241 154 201C171.333 161 195 126 225 96C255 66 290.667 42.6667 332 26C373.333 9.33333 417 0.666667 463 0C507 0 549.667 7.66667 591 23C632.333 38.3333 669 62 701 94L1054 447L963 538L768 343L475 636L670 831L579 922L226 569ZM464 126C435.333 126 408.333 131 383 141C357.667 151 335.667 165.667 317 185C298.333 204.333 283.667 226 273 250C262.333 274 256.667 301.333 256 332C256 357.333 259.333 379.333 266 398C272.667 416.667 282.333 434.333 295 451C307.667 467.667 321.333 483.333 336 498C350.667 512.667 366.667 528.333 384 545L677 252C659.667 235.333 644 219.333 630 204C616 188.667 600.667 175.333 584 164C567.333 152.667 550 143.333 532 136C514 128.667 491.333 125.333 464 126ZM2048 1916L1415 1758L1122 1465L1213 1374L1430 1592C1440.67 1557.33 1455.33 1524.67 1474 1494C1492.67 1463.33 1515 1435 1541 1409C1567 1383 1595 1361 1625 1343C1655 1325 1688 1310 1724 1298L1506 1081L1597 990L1890 1283L2048 1916ZM1872 1740L1790 1411C1758.67 1417.67 1729.67 1428.33 1703 1443C1676.33 1457.67 1652 1476 1630 1498C1608 1520 1589.67 1544.33 1575 1571C1560.33 1597.67 1549.67 1626.67 1543 1658L1872 1740ZM1728 60C1763.33 60 1796.33 66.6667 1827 80C1857.67 93.3333 1885 111.667 1909 135C1933 158.333 1951.33 185.333 1964 216C1976.67 246.667 1983.33 280 1984 316C1984 350 1977.67 382.667 1965 414C1952.33 445.333 1933.67 473 1909 497L763 1643C757 1682.33 744.667 1718.33 726 1751C707.333 1783.67 684 1812.67 656 1838C628 1863.33 596.333 1882.33 561 1895C525.667 1907.67 488 1914.67 448 1916H0V1788C7.33333 1788 15 1787 23 1785C31 1783 38.3333 1780 45 1776C61.6667 1767.33 75.3333 1756.33 86 1743C96.6667 1729.67 105 1715 111 1699C117 1683 121.333 1666.33 124 1649C126.667 1631.67 128 1614 128 1596C128 1556.67 134.667 1519.33 148 1484C161.333 1448.67 180.667 1416.67 206 1388C231.333 1359.33 260 1336 292 1318C324 1300 360.333 1287.67 401 1281L1547 135C1571 111 1598.67 92.6667 1630 80C1661.33 67.3333 1694 60.6667 1728 60ZM448 1788C474.667 1788 499.667 1783 523 1773C546.333 1763 566.667 1749.33 584 1732C601.333 1714.67 615 1694.33 625 1671C635 1647.67 640 1622.67 640 1596C640 1569.33 635 1544.33 625 1521C615 1497.67 601.333 1477.33 584 1460C566.667 1442.67 546.333 1429 523 1419C499.667 1409 474.667 1404 448 1404C421.333 1404 396.333 1409 373 1419C349.667 1429 329.333 1442.67 312 1460C294.667 1477.33 281 1497.67 271 1521C261 1544.33 256 1569.33 256 1596C256 1665.33 234.667 1729.33 192 1788H448ZM966 1259C944.667 1217 919.667 1181.67 891 1153C862.333 1124.33 827 1099.33 785 1078L564 1299C605.333 1315 641.667 1338.67 673 1370C704.333 1401.33 728.333 1438 745 1480L966 1259ZM1818 406C1842.67 381.333 1855 351.333 1855 316C1855 298.667 1851.67 282.333 1845 267C1838.33 251.667 1829.33 238.333 1818 227C1806.67 215.667 1793 206.333 1777 199C1761 191.667 1744.67 188.333 1728 189C1692.67 189 1662.67 201.333 1638 226L879 984C919.667 1008 954 1034 982 1062C1010 1090 1036 1124.33 1060 1165L1818 406Z" fill="#074287"/>
</svg>
