<svg width="18" height="18" viewBox="0 0 18 18" fill="none" xmlns="http://www.w3.org/2000/svg">
<path d="M17 8.00093C16.7554 6.24127 15.939 4.61085 14.6766 3.36078C13.4143 2.11072 11.776 1.31034 10.014 1.08293C8.44054 0.878827 6.84179 1.14133 5.4162 1.83786C3.99062 2.53438 2.80099 3.63425 1.995 5.00093M1 10.0009C1.23134 11.666 1.97504 13.2179 3.12797 14.4414C4.2809 15.6648 5.78594 16.4993 7.43439 16.829C9.08285 17.1586 10.793 16.9673 12.3279 16.2813C13.8627 15.5954 15.146 14.449 16 13.0009" stroke="white" stroke-width="2" stroke-linecap="round" stroke-linejoin="round"/>
<path d="M15 13C15 13.2652 15.1054 13.5196 15.2929 13.7071C15.4804 13.8946 15.7348 14 16 14C16.2652 14 16.5196 13.8946 16.7071 13.7071C16.8946 13.5196 17 13.2652 17 13C17 12.7348 16.8946 12.4804 16.7071 12.2929C16.5196 12.1054 16.2652 12 16 12C15.7348 12 15.4804 12.1054 15.2929 12.2929C15.1054 12.4804 15 12.7348 15 13ZM1 5C1 5.26522 1.10536 5.51957 1.29289 5.70711C1.48043 5.89464 1.73478 6 2 6C2.26522 6 2.51957 5.89464 2.70711 5.70711C2.89464 5.51957 3 5.26522 3 5C3 4.73478 2.89464 4.48043 2.70711 4.29289C2.51957 4.10536 2.26522 4 2 4C1.73478 4 1.48043 4.10536 1.29289 4.29289C1.10536 4.48043 1 4.73478 1 5ZM6 9C6 9.79565 6.31607 10.5587 6.87868 11.1213C7.44129 11.6839 8.20435 12 9 12C9.79565 12 10.5587 11.6839 11.1213 11.1213C11.6839 10.5587 12 9.79565 12 9C12 8.20435 11.6839 7.44129 11.1213 6.87868C10.5587 6.31607 9.79565 6 9 6C8.20435 6 7.44129 6.31607 6.87868 6.87868C6.31607 7.44129 6 8.20435 6 9Z" stroke="white" stroke-width="2" stroke-linecap="round" stroke-linejoin="round"/>
</svg>
