<svg width="22" height="21" viewBox="0 0 22 21" fill="none" xmlns="http://www.w3.org/2000/svg">
<path d="M7 15V13H9.175C9.09167 13.3333 9.03767 13.6667 9.013 14C8.98833 14.3333 8.99233 14.6667 9.025 15H7ZM7 20C5.61667 20 4.43767 19.5123 3.463 18.537C2.48833 17.5617 2.00067 16.3827 2 15V6C1.45 6 0.979333 5.80433 0.588 5.413C0.196667 5.02167 0.000666667 4.55067 0 4V2C0 1.45 0.196 0.979333 0.588 0.588C0.98 0.196667 1.45067 0.000666667 2 0H12C12.55 0 13.021 0.196 13.413 0.588C13.805 0.98 14.0007 1.45067 14 2V4C14 4.55 13.8043 5.021 13.413 5.413C13.0217 5.805 12.5507 6.00067 12 6V9.025C11.6 9.275 11.2333 9.56667 10.9 9.9C10.5667 10.2333 10.275 10.6 10.025 11H7V9H10V6H4V15C4 15.8333 4.29167 16.5417 4.875 17.125C5.45833 17.7083 6.16667 18 7 18C7.5 18 7.95433 17.8917 8.363 17.675C8.77167 17.4583 9.11733 17.1583 9.4 16.775C9.53333 17.1083 9.68333 17.425 9.85 17.725C10.0167 18.025 10.2167 18.3167 10.45 18.6C10 19.0333 9.48333 19.375 8.9 19.625C8.31667 19.875 7.68333 20 7 20ZM15.5 17C16.2 17 16.7917 16.7583 17.275 16.275C17.7583 15.7917 18 15.2 18 14.5C18 13.8 17.7583 13.2083 17.275 12.725C16.7917 12.2417 16.2 12 15.5 12C14.8 12 14.2083 12.2417 13.725 12.725C13.2417 13.2083 13 13.8 13 14.5C13 15.2 13.2417 15.7917 13.725 16.275C14.2083 16.7583 14.8 17 15.5 17ZM20.6 21L17.9 18.3C17.5333 18.5333 17.15 18.7083 16.75 18.825C16.35 18.9417 15.9333 19 15.5 19C14.25 19 13.1877 18.5627 12.313 17.688C11.4383 16.8133 11.0007 15.7507 11 14.5C10.9993 13.2493 11.437 12.187 12.313 11.313C13.189 10.439 14.2513 10.0013 15.5 10C16.7487 9.99867 17.8113 10.4363 18.688 11.313C19.5647 12.1897 20.002 13.252 20 14.5C20 14.9333 19.9417 15.35 19.825 15.75C19.7083 16.15 19.5333 16.5333 19.3 16.9L22 19.6L20.6 21Z" fill="white"/>
</svg>
