<svg width="25" height="25" viewBox="0 0 33 33" fill="none" xmlns="http://www.w3.org/2000/svg">
    <path d="M3.95833 29.0417H6.51146L24.025 11.5281L21.4719 8.975L3.95833 26.4885V29.0417ZM0.375 32.625V25.0104L24.025 1.40521C24.3833 1.07674 24.7793 0.822917 25.2129 0.64375C25.6465 0.464584 26.1015 0.375 26.5781 0.375C27.0559 0.375 27.5188 0.464584 27.9667 0.64375C28.4146 0.822917 28.8028 1.09167 29.1313 1.45L31.5948 3.95833C31.9531 4.28681 32.2147 4.675 32.3795 5.12292C32.5444 5.57083 32.6262 6.01875 32.625 6.46667C32.625 6.94444 32.5432 7.40013 32.3795 7.83371C32.2159 8.26729 31.9543 8.66265 31.5948 9.01979L7.98958 32.625H0.375ZM22.726 10.274L21.4719 8.975L24.025 11.5281L22.726 10.274Z" fill="#BCBCBC"/>
</svg>